<mxfile host="65bd71144e">
    <diagram id="qApGG_bHnVUNjQdxhK9M" name="Page-1">
        <mxGraphModel dx="870" dy="1812" grid="1" gridSize="14" guides="1" tooltips="1" connect="1" arrows="1" fold="1" page="1" pageScale="1" pageWidth="850" pageHeight="1100" math="0" shadow="0">
            <root>
                <mxCell id="0"/>
                <mxCell id="1" parent="0"/>
                <mxCell id="2" value="" style="rounded=0;whiteSpace=wrap;html=1;fillColor=#f5f5f5;fontColor=#333333;strokeColor=#666666;" parent="1" vertex="1">
                    <mxGeometry width="742" height="406" as="geometry"/>
                </mxCell>
                <mxCell id="3" value="" style="rounded=0;whiteSpace=wrap;html=1;fillColor=#ffe6cc;strokeColor=#d79b00;" parent="1" vertex="1">
                    <mxGeometry width="742" height="56" as="geometry"/>
                </mxCell>
                <mxCell id="6" value="Logo" style="ellipse;whiteSpace=wrap;html=1;" parent="1" vertex="1">
                    <mxGeometry x="14" y="7" width="70" height="42" as="geometry"/>
                </mxCell>
                <mxCell id="8" value="" style="ellipse;whiteSpace=wrap;html=1;aspect=fixed;fillColor=#f5f5f5;fontColor=#333333;strokeColor=#666666;" parent="1" vertex="1">
                    <mxGeometry x="686" y="7" width="42" height="42" as="geometry"/>
                </mxCell>
                <mxCell id="9" value="&lt;font color=&quot;#080808&quot;&gt;Profile pic&lt;/font&gt;" style="shape=callout;whiteSpace=wrap;html=1;perimeter=calloutPerimeter;fillColor=#dae8fc;strokeColor=#6c8ebf;" parent="1" vertex="1">
                    <mxGeometry x="658" y="-73" width="120" height="80" as="geometry"/>
                </mxCell>
                <mxCell id="10" value="L&lt;font color=&quot;#f0f0f0&quot;&gt;Login / Signup&lt;/font&gt;" style="rounded=1;whiteSpace=wrap;html=1;fontColor=#080808;" parent="1" vertex="1">
                    <mxGeometry x="574" y="7" width="98" height="42" as="geometry"/>
                </mxCell>
                <mxCell id="11" value="&lt;h1&gt;&lt;font color=&quot;#050505&quot;&gt;Heading&lt;/font&gt;&lt;/h1&gt;&lt;p&gt;&lt;font color=&quot;#050505&quot;&gt;Lorem ipsum dolor sit amet, consectetur adipisicing elit, sed do eiusmod tempor incididunt ut labore et dolore magna aliqua.&lt;/font&gt;&lt;/p&gt;" style="text;html=1;strokeColor=none;fillColor=none;spacing=5;spacingTop=-20;whiteSpace=wrap;overflow=hidden;rounded=0;fontColor=#F0F0F0;" parent="1" vertex="1">
                    <mxGeometry x="14" y="126" width="252" height="126" as="geometry"/>
                </mxCell>
                <mxCell id="12" value="&lt;font color=&quot;#f2f2f2&quot;&gt;Schedule Todays task&lt;/font&gt;" style="rounded=1;whiteSpace=wrap;html=1;fontColor=#050505;" parent="1" vertex="1">
                    <mxGeometry x="281.5" y="336" width="179" height="46" as="geometry"/>
                </mxCell>
                <mxCell id="14" value="" style="ellipse;shape=cloud;whiteSpace=wrap;html=1;fillColor=#dae8fc;strokeColor=#6c8ebf;" parent="1" vertex="1">
                    <mxGeometry x="378" y="56" width="120" height="80" as="geometry"/>
                </mxCell>
                <mxCell id="15" value="" style="rounded=1;whiteSpace=wrap;html=1;strokeWidth=2;fillWeight=4;hachureGap=8;hachureAngle=45;fillColor=#1ba1e2;sketch=1;fontColor=#F2F2F2;" parent="1" vertex="1">
                    <mxGeometry x="406" y="210" width="120" height="60" as="geometry"/>
                </mxCell>
                <mxCell id="17" value="" style="rhombus;whiteSpace=wrap;html=1;strokeWidth=2;fillWeight=-1;hachureGap=8;fillStyle=cross-hatch;fillColor=#006600;sketch=1;fontColor=#F2F2F2;" parent="1" vertex="1">
                    <mxGeometry x="563" y="252" width="120" height="60" as="geometry"/>
                </mxCell>
                <mxCell id="26" value="" style="group" vertex="1" connectable="0" parent="1">
                    <mxGeometry x="378" y="56" width="305" height="256" as="geometry"/>
                </mxCell>
                <mxCell id="13" value="" style="ellipse;whiteSpace=wrap;html=1;aspect=fixed;fillColor=#d5e8d4;strokeColor=#82b366;" parent="26" vertex="1">
                    <mxGeometry x="60" y="16" width="234" height="234" as="geometry"/>
                </mxCell>
                <mxCell id="16" value="" style="ellipse;whiteSpace=wrap;html=1;strokeWidth=2;fillWeight=2;hachureGap=8;fillColor=#990000;fillStyle=dots;sketch=1;fontColor=#F2F2F2;" parent="26" vertex="1">
                    <mxGeometry x="185" y="20" width="120" height="60" as="geometry"/>
                </mxCell>
                <mxCell id="23" value="" style="rhombus;whiteSpace=wrap;html=1;strokeWidth=2;fillWeight=-1;hachureGap=8;fillStyle=cross-hatch;fillColor=#006600;sketch=1;fontColor=#F2F2F2;" vertex="1" parent="26">
                    <mxGeometry x="185" y="196" width="120" height="60" as="geometry"/>
                </mxCell>
                <mxCell id="24" value="" style="rounded=1;whiteSpace=wrap;html=1;strokeWidth=2;fillWeight=4;hachureGap=8;hachureAngle=45;fillColor=#1ba1e2;sketch=1;fontColor=#F2F2F2;" vertex="1" parent="26">
                    <mxGeometry x="28" y="154" width="120" height="60" as="geometry"/>
                </mxCell>
                <mxCell id="25" value="" style="ellipse;shape=cloud;whiteSpace=wrap;html=1;fillColor=#dae8fc;strokeColor=#6c8ebf;" vertex="1" parent="26">
                    <mxGeometry width="120" height="80" as="geometry"/>
                </mxCell>
            </root>
        </mxGraphModel>
    </diagram>
</mxfile>